<svg width="51" height="51" viewBox="0 0 51 51" fill="none" xmlns="http://www.w3.org/2000/svg">
<circle opacity="0.8" cx="25.5" cy="25.5" r="25.5" fill="#AE9063" fill-opacity="0.8"/>
<path fill-rule="evenodd" clip-rule="evenodd" d="M28 12.5C29.3148 12.5 30.4004 12.5 31.3065 12.5496C31.1111 12.9059 31 13.315 31 13.75V15H29.75C28.3693 15 27.25 16.1193 27.25 17.5C27.25 18.8807 28.3693 20 29.75 20H31V21.25C31 22.6307 32.1193 23.75 33.5 23.75C34.8807 23.75 36 22.6307 36 21.25V29.5C36 33.2712 36 35.1569 34.8284 36.3284C33.6569 37.5 31.7712 37.5 28 37.5H24C20.2288 37.5 18.3431 37.5 17.1716 36.3284C16 35.1569 16 33.2712 16 29.5V20.5C16 16.7288 16 14.8431 17.1716 13.6716C18.3431 12.5 20.2288 12.5 24 12.5H28H28ZM21 24C20.4477 24 20 24.4477 20 25C20 25.5523 20.4477 26 21 26H26C26.5523 26 27 25.5523 27 25C27 24.4477 26.5523 24 26 24H21ZM21 27.75C20.4477 27.75 20 28.1977 20 28.75C20 29.3023 20.4477 29.75 21 29.75H28.5C29.0523 29.75 29.5 29.3023 29.5 28.75C29.5 28.1977 29.0523 27.75 28.5 27.75H21ZM21 31.5C20.4477 31.5 20 31.9477 20 32.5C20 33.0523 20.4477 33.5 21 33.5H26C26.5523 33.5 27 33.0523 27 32.5C27 31.9477 26.5523 31.5 26 31.5H21Z" fill="#222222"/>
<path d="M33.5 13.75L33.5 21.25" stroke="#222222" stroke-width="2" stroke-linecap="round"/>
<path d="M37.25 17.5L29.75 17.5" stroke="#222222" stroke-width="2" stroke-linecap="round"/>
</svg>
