<svg width="87" height="49" viewBox="0 0 87 49" fill="none" xmlns="http://www.w3.org/2000/svg">
<g id="Bar 3">
<g id="Bar">
<path id="Rectangle " d="M39.1113 25.7572C39.1113 24.9118 39.7967 24.2264 40.6422 24.2264C41.4877 24.2264 42.1731 24.9118 42.1731 25.7572V48.5H39.1113V25.7572Z" fill="#4049FF"/>
<path id="Rectangle" fill-rule="evenodd" clip-rule="evenodd" d="M44.2607 21.6629C44.2607 20.8174 44.9461 20.132 45.7916 20.132C46.6371 20.132 47.3225 20.8174 47.3225 21.6629V48.5H44.2607V21.6629Z" fill="#FF9000"/>
</g>
<g id="Bar_2">
<path id="Rectangle _2" fill-rule="evenodd" clip-rule="evenodd" d="M78.1484 24.295C78.1484 23.4496 78.8338 22.7642 79.6793 22.7642C80.5248 22.7642 81.2102 23.4496 81.2102 24.295V48.5H78.1484V24.295Z" fill="#4049FF"/>
<path id="Rectangle_2" d="M83.2974 19.3233C83.2974 18.4778 83.9828 17.7924 84.8282 17.7924C85.6737 17.7924 86.3591 18.4778 86.3591 19.3233V48.5H83.2974V19.3233Z" fill="#FF9000"/>
</g>
<g id="Bar_3">
<path id="Rectangle _3" fill-rule="evenodd" clip-rule="evenodd" d="M65.1357 30.729C65.1357 29.8835 65.8211 29.1981 66.6666 29.1981C67.5121 29.1981 68.1975 29.8835 68.1975 30.729V48.5H65.1357V30.729Z" fill="#4049FF"/>
<path id="Rectangle_3" d="M70.2852 26.6346C70.2852 25.7892 70.9705 25.1038 71.816 25.1038C72.6615 25.1038 73.3469 25.7892 73.3469 26.6346V48.5H70.2852V26.6346Z" fill="#FF9000"/>
</g>
<g id="Bar_4">
<path id="Rectangle _4" d="M13.0864 20.2007C13.0864 19.3552 13.7718 18.6698 14.6173 18.6698C15.4628 18.6698 16.1482 19.3552 16.1482 20.2007V48.5H13.0864V20.2007Z" fill="#4049FF"/>
<path id="Rectangle_4" fill-rule="evenodd" clip-rule="evenodd" d="M18.2358 14.6441C18.2358 13.7986 18.9212 13.1132 19.7667 13.1132C20.6122 13.1132 21.2976 13.7986 21.2976 14.6441V48.5H18.2358V14.6441Z" fill="#FF9000"/>
</g>
<g id="Bar_5">
<path id="Rectangle _5" d="M52.1235 9.67234C52.1235 8.82687 52.8089 8.14148 53.6544 8.14148C54.4999 8.14148 55.1853 8.82687 55.1853 9.67234V48.5H52.1235V9.67234Z" fill="#4049FF"/>
<path id="Rectangle_5" fill-rule="evenodd" clip-rule="evenodd" d="M57.2725 2.06858C57.2725 1.22311 57.9579 0.53772 58.8033 0.53772C59.6488 0.53772 60.3342 1.22311 60.3342 2.06858V48.5H57.2725V2.06858Z" fill="#FF9000"/>
</g>
<g id="Bar_6">
<path id="Rectangle _6" fill-rule="evenodd" clip-rule="evenodd" d="M0.0737305 33.3611C0.0737305 32.5156 0.759122 31.8302 1.60459 31.8302C2.45007 31.8302 3.13546 32.5156 3.13546 33.3611V48.5H0.0737305V33.3611Z" fill="#4049FF"/>
<path id="Rectangle_6" d="M5.22314 25.4648C5.22314 24.6194 5.90854 23.934 6.75401 23.934C7.59948 23.934 8.28487 24.6194 8.28487 25.4648V48.5H5.22314V25.4648Z" fill="#FF9000"/>
</g>
<g id="Bar_7">
<path id="Rectangle _7" fill-rule="evenodd" clip-rule="evenodd" d="M26.0986 25.4648C26.0986 24.6194 26.784 23.934 27.6295 23.934C28.475 23.934 29.1604 24.6194 29.1604 25.4648V48.5H26.0986V25.4648Z" fill="#4049FF"/>
<path id="Rectangle_7" fill-rule="evenodd" clip-rule="evenodd" d="M31.248 17.5686C31.248 16.7231 31.9334 16.0377 32.7789 16.0377C33.6244 16.0377 34.3098 16.7231 34.3098 17.5686V48.5H31.248V17.5686Z" fill="#FF9000"/>
</g>
</g>
</svg>
