<svg width="77" height="44" viewBox="0 0 77 44" fill="none" xmlns="http://www.w3.org/2000/svg">
<g id="Bar 1">
<path id="Bar" fill-rule="evenodd" clip-rule="evenodd" d="M73.4316 20.983C73.4316 20.0863 74.1586 19.3593 75.0553 19.3593C75.952 19.3593 76.6789 20.0863 76.6789 20.983V43.4645H73.4316V20.983Z" fill="#5286F8"/>
<path id="Bar_2" fill-rule="evenodd" clip-rule="evenodd" d="M62.7617 25.5914C62.7617 24.6946 63.4886 23.9677 64.3854 23.9677C65.2821 23.9677 66.009 24.6946 66.009 25.5914V43.4646H62.7617V25.5914Z" fill="#5286F8"/>
<path id="Bar_3" fill-rule="evenodd" clip-rule="evenodd" d="M50.2368 16.7291C50.2368 15.8324 50.9637 15.1055 51.8605 15.1055C52.7572 15.1055 53.4841 15.8324 53.4841 16.7291V43.4646H50.2368V16.7291Z" fill="#5286F8"/>
<path id="Bar_4" fill-rule="evenodd" clip-rule="evenodd" d="M37.7114 9.28486C37.7114 8.38815 38.4384 7.66122 39.3351 7.66122C40.2318 7.66122 40.9587 8.38815 40.9587 9.28487V43.4645H37.7114V9.28486Z" fill="#5286F8"/>
<path id="Bar_5" fill-rule="evenodd" clip-rule="evenodd" d="M25.186 28.4272C25.186 27.5305 25.913 26.8036 26.8097 26.8036C27.7064 26.8036 28.4333 27.5305 28.4333 28.4272V43.4645H25.186V28.4272Z" fill="#5286F8"/>
<path id="Bar_6" fill-rule="evenodd" clip-rule="evenodd" d="M12.6611 22.401C12.6611 21.5042 13.3881 20.7773 14.2848 20.7773C15.1815 20.7773 15.9084 21.5042 15.9084 22.401V43.4646H12.6611V22.401Z" fill="#5286F8"/>
<path id="Bar_7" fill-rule="evenodd" clip-rule="evenodd" d="M0.135742 1.84062C0.135742 0.94391 0.862673 0.21698 1.75939 0.21698C2.6561 0.21698 3.38303 0.94391 3.38303 1.84062V43.4646H0.135742V1.84062Z" fill="#5286F8"/>
</g>
</svg>
