<svg width="77" height="42" viewBox="0 0 77 42" fill="none" xmlns="http://www.w3.org/2000/svg">
<g id="Bar 2">
<g id="Bar">
<path id="Shape" d="M38.4937 9.10784C38.4937 8.30109 39.1477 7.64709 39.9544 7.64709C40.7611 7.64709 41.4151 8.30109 41.4151 9.10784V21.0004H38.4937V9.10784Z" fill="#D0F1FA"/>
<rect id="Shape_2" x="38.4937" y="21.0004" width="2.9215" height="8.54036" fill="#BDEEE1"/>
<path id="Shape_3" fill-rule="evenodd" clip-rule="evenodd" d="M38.4937 29.5407H41.4151V38.0811H38.4937V29.5407Z" fill="#1CCAB8"/>
<path id="Shape_4" fill-rule="evenodd" clip-rule="evenodd" d="M38.4937 38.0811L41.4151 38.0811V39.9263C41.4151 40.733 40.7611 41.387 39.9544 41.387C39.1477 41.387 38.4937 40.733 38.4937 39.9263V38.0811Z" fill="#EDF0F4"/>
</g>
<g id="Bar_2">
<path id="Shape_5" d="M74.0864 2.31256C74.0864 1.50581 74.7404 0.851807 75.5472 0.851807C76.3539 0.851807 77.0079 1.50581 77.0079 2.31255V22.2661H74.0864V2.31256Z" fill="#D0F1FA"/>
<rect id="Shape_6" x="74.0864" y="22.2661" width="2.9215" height="8.58901" fill="#BDEEE1"/>
<path id="Shape_7" fill-rule="evenodd" clip-rule="evenodd" d="M74.0864 30.8552H77.0079V36.1194H74.0864V30.8552Z" fill="#1CCAB8"/>
<path id="Shape_8" d="M74.0864 36.1194H77.0079V39.9229C77.0079 40.7296 76.3539 41.3836 75.5472 41.3836C74.7404 41.3836 74.0864 40.7296 74.0864 39.9229V36.1194Z" fill="#EDF0F4"/>
</g>
<g id="Bar_3">
<path id="Shape_9" d="M12.8516 18.248C12.8516 17.4412 13.5056 16.7872 14.3123 16.7872C15.1191 16.7872 15.7731 17.4412 15.7731 18.248V23.9926H12.8516V18.248Z" fill="#D0F1FA"/>
<rect id="Shape_10" x="12.8516" y="23.9926" width="2.9215" height="4.12521" fill="#BDEEE1"/>
<rect id="Shape_11" x="12.8516" y="28.1178" width="2.9215" height="5.22526" fill="#1CCAB8"/>
<path id="Shape_12" fill-rule="evenodd" clip-rule="evenodd" d="M12.8516 33.3431H15.7731V39.8577C15.7731 40.6645 15.1191 41.3185 14.3123 41.3185C13.5056 41.3185 12.8516 40.6645 12.8516 39.8577V33.3431Z" fill="#EDF0F4"/>
</g>
<g id="Bar_4">
<path id="Shape_13" d="M63.3706 6.05871C63.3706 5.25196 64.0246 4.59796 64.8314 4.59796C65.6381 4.59796 66.2921 5.25196 66.2921 6.05871V21.546H63.3706V6.05871Z" fill="#D0F1FA"/>
<rect id="Shape_14" x="63.3706" y="21.546" width="2.9215" height="7.15689" fill="#BDEEE1"/>
<rect id="Shape_15" x="63.3706" y="28.7029" width="2.9215" height="4.12898" fill="#1CCAB8"/>
<path id="Shape_16" fill-rule="evenodd" clip-rule="evenodd" d="M63.3706 32.8319H66.2921V39.9043C66.2921 40.7111 65.6381 41.3651 64.8314 41.3651C64.0246 41.3651 63.3706 40.7111 63.3706 39.9043V32.8319Z" fill="#EDF0F4"/>
</g>
<g id="Bar_5">
<path id="Shape_17" d="M50.7407 12.3993C50.7407 11.5926 51.3947 10.9386 52.2015 10.9386C53.0082 10.9386 53.6622 11.5926 53.6622 12.3993V19.9702H50.7407V12.3993Z" fill="#D0F1FA"/>
<rect id="Shape_18" x="50.7407" y="19.9702" width="2.9215" height="8.54903" fill="#BDEEE1"/>
<path id="Shape_19" fill-rule="evenodd" clip-rule="evenodd" d="M50.7407 28.5193H53.6622V37.0683H50.7407V28.5193Z" fill="#1CCAB8"/>
<path id="Shape_20" d="M50.7407 37.0683H53.6622V40.0199C53.6622 40.8267 53.0082 41.4807 52.2015 41.4807C51.3947 41.4807 50.7407 40.8267 50.7407 40.0199V37.0683Z" fill="#EDF0F4"/>
</g>
<g id="Bar_6">
<path id="Shape_21" d="M0.60498 2.16393C0.60498 1.35718 1.25898 0.703186 2.06573 0.703186C2.87248 0.703186 3.52648 1.35719 3.52648 2.16393V18.8197H0.60498V2.16393Z" fill="#D0F1FA"/>
<rect id="Shape_22" x="0.60498" y="18.8197" width="2.9215" height="8.57424" fill="#BDEEE1"/>
<rect id="Shape_23" x="0.60498" y="27.394" width="2.9215" height="8.57424" fill="#1CCAB8"/>
<path id="Shape_24" d="M0.60498 35.9682H3.52648V39.7626C3.52648 40.5694 2.87248 41.2234 2.06573 41.2234C1.25898 41.2234 0.60498 40.5694 0.60498 39.7626V35.9682Z" fill="#EDF0F4"/>
</g>
<g id="Bar_7">
<path id="Shape_25" d="M25.4814 10.4084C25.4814 9.60163 26.1354 8.94763 26.9422 8.94763C27.7489 8.94763 28.4029 9.60163 28.4029 10.4084V23.4739H25.4814V10.4084Z" fill="#D0F1FA"/>
<path id="Shape_26" fill-rule="evenodd" clip-rule="evenodd" d="M25.4814 23.4738H28.4029V27.6321H25.4814V23.4738Z" fill="#BDEEE1"/>
<rect id="Shape_27" x="25.4814" y="27.6321" width="2.9215" height="4.15827" fill="#1CCAB8"/>
<path id="Shape_28" fill-rule="evenodd" clip-rule="evenodd" d="M25.4814 31.7904H28.4029V40.0323C28.4029 40.839 27.7489 41.493 26.9422 41.493C26.1354 41.493 25.4814 40.839 25.4814 40.0323V31.7904Z" fill="#EDF0F4"/>
</g>
</g>
</svg>
