<svg width="51" height="51" viewBox="0 0 51 51" fill="none" xmlns="http://www.w3.org/2000/svg">
<circle opacity="0.8" cx="25.5" cy="25.5" r="25.5" fill="#AE9063" fill-opacity="0.8"/>
<path fill-rule="evenodd" clip-rule="evenodd" d="M32.25 16H33.5C35.5711 16 37.25 17.6789 37.25 19.75V34.75C37.25 36.8211 35.5711 38.5 33.5 38.5H18.5C16.4289 38.5 14.75 36.8211 14.75 34.75V19.75C14.75 17.6789 16.4289 16 18.5 16H19.75V14.75C19.75 14.0596 20.3096 13.5 21 13.5C21.6904 13.5 22.25 14.0596 22.25 14.75V16H29.75V14.75C29.75 14.0596 30.3096 13.5 31 13.5C31.6904 13.5 32.25 14.0596 32.25 14.75V16ZM19.75 31C19.75 31.6904 20.3096 32.25 21 32.25C21.6904 32.25 22.25 31.6904 22.25 31C22.25 30.3096 21.6904 29.75 21 29.75C20.3096 29.75 19.75 30.3096 19.75 31ZM31 32.25H26C25.3096 32.25 24.75 31.6904 24.75 31C24.75 30.3096 25.3096 29.75 26 29.75H31C31.6904 29.75 32.25 30.3096 32.25 31C32.25 31.6904 31.6904 32.25 31 32.25ZM17.25 24.75H34.75V19.75C34.75 19.0596 34.1904 18.5 33.5 18.5H32.25V19.75C32.25 20.4404 31.6904 21 31 21C30.3096 21 29.75 20.4404 29.75 19.75V18.5H22.25V19.75C22.25 20.4404 21.6904 21 21 21C20.3096 21 19.75 20.4404 19.75 19.75V18.5H18.5C17.8096 18.5 17.25 19.0596 17.25 19.75V24.75Z" fill="black"/>
</svg>
