<svg width="51" height="51" viewBox="0 0 51 51" fill="none" xmlns="http://www.w3.org/2000/svg">
<g id="Dashboard">
<circle id="Ellipse 48" opacity="0.8" cx="25.5" cy="25.5" r="25.5" fill="#F8B550"/>
<g id="Element / icon / dashboard">
<rect id="Rectangle" opacity="0.01" x="13" y="12" width="26" height="26" fill="black"/>
<path id="Path" d="M22.7505 15.25H18.4172C17.2205 15.25 16.2505 16.22 16.2505 17.4167V21.75C16.2505 22.9466 17.2205 23.9167 18.4172 23.9167H22.7505C23.9471 23.9167 24.9172 22.9466 24.9172 21.75V17.4167C24.9172 16.22 23.9471 15.25 22.7505 15.25Z" fill="black"/>
<path id="Path_2" d="M33.583 15.25H29.2497C28.0531 15.25 27.083 16.22 27.083 17.4167V21.75C27.083 22.9466 28.0531 23.9167 29.2497 23.9167H33.583C34.7796 23.9167 35.7497 22.9466 35.7497 21.75V17.4167C35.7497 16.22 34.7796 15.25 33.583 15.25Z" fill="black"/>
<path id="Path_3" d="M22.7505 26.0833H18.4172C17.2205 26.0833 16.2505 27.0533 16.2505 28.2499V32.5833C16.2505 33.7799 17.2205 34.7499 18.4172 34.7499H22.7505C23.9471 34.7499 24.9172 33.7799 24.9172 32.5833V28.2499C24.9172 27.0533 23.9471 26.0833 22.7505 26.0833Z" fill="black"/>
<path id="Path_4" d="M33.583 26.0833H29.2497C28.0531 26.0833 27.083 27.0533 27.083 28.2499V32.5833C27.083 33.7799 28.0531 34.7499 29.2497 34.7499H33.583C34.7796 34.7499 35.7497 33.7799 35.7497 32.5833V28.2499C35.7497 27.0533 34.7796 26.0833 33.583 26.0833Z" fill="black"/>
</g>
</g>
</svg>
