<svg width="51" height="51" viewBox="0 0 51 51" fill="none" xmlns="http://www.w3.org/2000/svg">
<circle opacity="0.8" cx="25.5" cy="25.5" r="25.5" fill="#F8B550"/>
<rect opacity="0.01" x="11" y="11" width="29" height="29" fill="black"/>
<path fill-rule="evenodd" clip-rule="evenodd" d="M36.5806 23.482H28.521C27.9671 23.482 27.5181 23.033 27.5181 22.4791V14.4195C27.5181 13.8656 27.9671 13.4166 28.521 13.4166C33.5261 13.4166 37.5835 17.474 37.5835 22.4791C37.5835 23.033 37.1345 23.482 36.5806 23.482ZM35.4931 21.4762C35.0478 18.3826 32.6175 15.9523 29.5239 15.507V21.4762H35.4931Z" fill="black"/>
<path d="M36.4715 25.5H26.6235C26.3319 25.5 26.0522 25.3841 25.846 25.1779C25.6398 24.9717 25.524 24.692 25.524 24.4004V14.5283C25.5258 14.2113 25.3923 13.9085 25.1569 13.6962C24.9215 13.4839 24.6066 13.3822 24.2915 13.4166C17.9839 14.0864 13.2679 19.5193 13.4915 25.8584C13.7151 32.1975 18.8023 37.2846 25.1413 37.5082C31.4804 37.7319 36.9134 33.0159 37.5831 26.7083C37.6103 26.3971 37.5053 26.0888 37.2938 25.859C37.0823 25.6291 36.7838 25.4988 36.4715 25.5Z" fill="black"/>
</svg>
