<svg width="51" height="51" viewBox="0 0 51 51" fill="none" xmlns="http://www.w3.org/2000/svg">
<g id="test1">
<circle id="Ellipse 48" opacity="0.8" cx="25.5" cy="25.5" r="25.5" fill="#AE9063" fill-opacity="0.8"/>
<g id="File_dock_search_fill">
<g id="Group 8656">
<circle id="Ellipse 65" cx="32.1458" cy="32.1458" r="3.02083" stroke="#222222" stroke-width="2"/>
<path id="Vector 109" d="M36.375 36.375L34.5625 34.5625" stroke="#222222" stroke-width="2" stroke-linecap="round"/>
</g>
<path id="Subtract" fill-rule="evenodd" clip-rule="evenodd" d="M15.8335 21.4167C15.8335 17.6455 15.8335 15.7599 17.0051 14.5883C18.1766 13.4167 20.0623 13.4167 23.8335 13.4167H27.1668C30.9381 13.4167 32.8237 13.4167 33.9953 14.5883C35.1668 15.7599 35.1668 17.6455 35.1668 21.4167V27.5241C34.2989 26.9556 33.261 26.6251 32.146 26.6251C29.0969 26.6251 26.6252 29.0968 26.6252 32.1459C26.6252 34.7436 28.4193 36.9223 30.8361 37.5104C29.8607 37.5834 28.6619 37.5834 27.1668 37.5834H23.8335C20.0623 37.5834 18.1766 37.5834 17.0051 36.4118C15.8335 35.2403 15.8335 33.3547 15.8335 29.5834V21.4167ZM32.146 31.6251C31.8583 31.6251 31.6252 31.8583 31.6252 32.1459C31.6252 32.4336 31.8583 32.6667 32.146 32.6667C32.4336 32.6667 32.6668 32.4336 32.6668 32.1459C32.6668 31.8583 32.4336 31.6251 32.146 31.6251ZM20.6668 17.2501C20.1145 17.2501 19.6668 17.6978 19.6668 18.2501C19.6668 18.8024 20.1145 19.2501 20.6668 19.2501H25.5002C26.0524 19.2501 26.5002 18.8024 26.5002 18.2501C26.5002 17.6978 26.0524 17.2501 25.5002 17.2501H20.6668ZM20.6668 22.0834C20.1145 22.0834 19.6668 22.5311 19.6668 23.0834C19.6668 23.6357 20.1145 24.0834 20.6668 24.0834L27.9168 24.0834C28.4691 24.0834 28.9168 23.6357 28.9168 23.0834C28.9168 22.5311 28.4691 22.0834 27.9168 22.0834L20.6668 22.0834ZM20.6668 26.9167C20.1145 26.9167 19.6668 27.3645 19.6668 27.9167C19.6668 28.469 20.1145 28.9167 20.6668 28.9167H24.2918C24.8441 28.9167 25.2918 28.469 25.2918 27.9167C25.2918 27.3645 24.8441 26.9167 24.2918 26.9167H20.6668Z" fill="#222222"/>
</g>
</g>
</svg>
