<svg width="51" height="51" viewBox="0 0 51 51" fill="none" xmlns="http://www.w3.org/2000/svg">
<g id="Gestion des utilisateurs">
<circle id="Ellipse 48" opacity="0.8" cx="25.5" cy="25.5" r="25.5" fill="#F8B550"/>
<g id="Element / icon / contact">
<rect id="Rectangle" opacity="0.01" x="13" y="12" width="26" height="26" fill="black"/>
<path id="Path" d="M22.7498 23.9167C25.1431 23.9167 27.0832 21.9766 27.0832 19.5833C27.0832 17.1901 25.1431 15.25 22.7498 15.25C20.3566 15.25 18.4165 17.1901 18.4165 19.5833C18.4165 21.9766 20.3566 23.9167 22.7498 23.9167Z" fill="black"/>
<path id="Path_2" d="M31.4165 26.0833C33.2114 26.0833 34.6665 24.6283 34.6665 22.8333C34.6665 21.0384 33.2114 19.5833 31.4165 19.5833C29.6216 19.5833 28.1665 21.0384 28.1665 22.8333C28.1665 24.6283 29.6216 26.0833 31.4165 26.0833Z" fill="black"/>
<path id="Path_3" d="M35.7498 33.6667C36.3481 33.6667 36.8332 33.1816 36.8332 32.5833C36.8314 30.5178 35.655 28.633 33.8002 27.724C31.9454 26.815 29.7351 27.04 28.1015 28.3042C25.9317 26.1429 22.6748 25.4989 19.8457 26.6717C17.0166 27.8446 15.1706 30.6041 15.1665 33.6667C15.1665 34.265 15.6515 34.75 16.2498 34.75H29.2498C29.8481 34.75 30.3332 34.265 30.3332 33.6667" fill="black"/>
</g>
</g>
</svg>
